<mxfile host="app.diagrams.net" agent="Mozilla/5.0 (Windows NT 10.0; Win64; x64) AppleWebKit/537.36 (KHTML, like Gecko) Chrome/129.0.0.0 Safari/537.36" version="24.7.16">
  <diagram name="Page-1" id="jD_6wQTo_bc9vNJez9r-">
    <mxGraphModel dx="1050" dy="1683" grid="1" gridSize="10" guides="1" tooltips="1" connect="1" arrows="1" fold="1" page="1" pageScale="1" pageWidth="850" pageHeight="1100" math="0" shadow="0">
      <root>
        <mxCell id="0" />
        <mxCell id="1" parent="0" />
        <mxCell id="ekOtABfMRoYp2BiTtCvv-1" value="AWS Account" style="points=[[0,0],[0.25,0],[0.5,0],[0.75,0],[1,0],[1,0.25],[1,0.5],[1,0.75],[1,1],[0.75,1],[0.5,1],[0.25,1],[0,1],[0,0.75],[0,0.5],[0,0.25]];outlineConnect=0;gradientColor=#b3b3b3;html=1;whiteSpace=wrap;fontSize=12;fontStyle=0;container=1;pointerEvents=0;collapsible=0;recursiveResize=0;shape=mxgraph.aws4.group;grIcon=mxgraph.aws4.group_account;strokeColor=#666666;fillColor=#f5f5f5;verticalAlign=top;align=left;spacingLeft=30;dashed=0;" vertex="1" parent="1">
          <mxGeometry x="160" y="80" width="440" height="510" as="geometry" />
        </mxCell>
        <mxCell id="ekOtABfMRoYp2BiTtCvv-2" value="" style="outlineConnect=0;dashed=0;verticalLabelPosition=bottom;verticalAlign=top;align=center;html=1;shape=mxgraph.aws3.application_load_balancer;fillColor=#F58534;gradientColor=none;" vertex="1" parent="ekOtABfMRoYp2BiTtCvv-1">
          <mxGeometry x="190" y="40" width="60" height="50" as="geometry" />
        </mxCell>
        <mxCell id="ekOtABfMRoYp2BiTtCvv-3" value="&lt;b&gt;frontend&lt;/b&gt;" style="text;html=1;align=center;verticalAlign=middle;resizable=0;points=[];autosize=1;strokeColor=none;fillColor=none;" vertex="1" parent="ekOtABfMRoYp2BiTtCvv-1">
          <mxGeometry x="250" y="50" width="70" height="30" as="geometry" />
        </mxCell>
        <mxCell id="ekOtABfMRoYp2BiTtCvv-7" value="" style="outlineConnect=0;dashed=0;verticalLabelPosition=bottom;verticalAlign=top;align=center;html=1;shape=mxgraph.aws3.ec2;fillColor=#F58534;gradientColor=none;" vertex="1" parent="ekOtABfMRoYp2BiTtCvv-1">
          <mxGeometry x="195" y="130" width="50" height="60" as="geometry" />
        </mxCell>
        <mxCell id="ekOtABfMRoYp2BiTtCvv-8" value="&lt;b&gt;frontend server&lt;/b&gt;" style="text;html=1;align=center;verticalAlign=middle;resizable=0;points=[];autosize=1;strokeColor=none;fillColor=none;" vertex="1" parent="ekOtABfMRoYp2BiTtCvv-1">
          <mxGeometry x="245" y="145" width="110" height="30" as="geometry" />
        </mxCell>
        <mxCell id="ekOtABfMRoYp2BiTtCvv-9" style="edgeStyle=orthogonalEdgeStyle;rounded=0;orthogonalLoop=1;jettySize=auto;html=1;entryX=0.5;entryY=0;entryDx=0;entryDy=0;entryPerimeter=0;flowAnimation=1;" edge="1" parent="ekOtABfMRoYp2BiTtCvv-1" source="ekOtABfMRoYp2BiTtCvv-2" target="ekOtABfMRoYp2BiTtCvv-7">
          <mxGeometry relative="1" as="geometry" />
        </mxCell>
        <mxCell id="ekOtABfMRoYp2BiTtCvv-10" value="&lt;b&gt;80&lt;/b&gt;" style="text;html=1;align=center;verticalAlign=middle;resizable=0;points=[];autosize=1;strokeColor=none;fillColor=none;" vertex="1" parent="ekOtABfMRoYp2BiTtCvv-1">
          <mxGeometry x="225" y="90" width="40" height="30" as="geometry" />
        </mxCell>
        <mxCell id="ekOtABfMRoYp2BiTtCvv-11" value="" style="outlineConnect=0;dashed=0;verticalLabelPosition=bottom;verticalAlign=top;align=center;html=1;shape=mxgraph.aws3.application_load_balancer;fillColor=#F58534;gradientColor=none;" vertex="1" parent="ekOtABfMRoYp2BiTtCvv-1">
          <mxGeometry x="190" y="230" width="60" height="50" as="geometry" />
        </mxCell>
        <mxCell id="ekOtABfMRoYp2BiTtCvv-12" value="&lt;b&gt;backend&lt;/b&gt;" style="text;html=1;align=center;verticalAlign=middle;resizable=0;points=[];autosize=1;strokeColor=none;fillColor=none;" vertex="1" parent="ekOtABfMRoYp2BiTtCvv-1">
          <mxGeometry x="250" y="240" width="70" height="30" as="geometry" />
        </mxCell>
        <mxCell id="ekOtABfMRoYp2BiTtCvv-13" style="edgeStyle=orthogonalEdgeStyle;rounded=0;orthogonalLoop=1;jettySize=auto;html=1;entryX=0.5;entryY=0;entryDx=0;entryDy=0;entryPerimeter=0;flowAnimation=1;" edge="1" parent="ekOtABfMRoYp2BiTtCvv-1" source="ekOtABfMRoYp2BiTtCvv-7" target="ekOtABfMRoYp2BiTtCvv-11">
          <mxGeometry relative="1" as="geometry" />
        </mxCell>
        <mxCell id="ekOtABfMRoYp2BiTtCvv-14" value="&lt;b&gt;80&lt;/b&gt;" style="text;html=1;align=center;verticalAlign=middle;resizable=0;points=[];autosize=1;strokeColor=none;fillColor=none;" vertex="1" parent="ekOtABfMRoYp2BiTtCvv-1">
          <mxGeometry x="225" y="200" width="40" height="30" as="geometry" />
        </mxCell>
        <mxCell id="ekOtABfMRoYp2BiTtCvv-15" value="" style="outlineConnect=0;dashed=0;verticalLabelPosition=bottom;verticalAlign=top;align=center;html=1;shape=mxgraph.aws3.ec2;fillColor=#F58534;gradientColor=none;" vertex="1" parent="ekOtABfMRoYp2BiTtCvv-1">
          <mxGeometry x="195" y="330" width="50" height="60" as="geometry" />
        </mxCell>
        <mxCell id="ekOtABfMRoYp2BiTtCvv-16" style="edgeStyle=orthogonalEdgeStyle;rounded=0;orthogonalLoop=1;jettySize=auto;html=1;entryX=0.5;entryY=0;entryDx=0;entryDy=0;entryPerimeter=0;flowAnimation=1;" edge="1" parent="ekOtABfMRoYp2BiTtCvv-1" source="ekOtABfMRoYp2BiTtCvv-11" target="ekOtABfMRoYp2BiTtCvv-15">
          <mxGeometry relative="1" as="geometry" />
        </mxCell>
        <mxCell id="ekOtABfMRoYp2BiTtCvv-17" value="&lt;b&gt;8080&lt;/b&gt;" style="text;html=1;align=center;verticalAlign=middle;resizable=0;points=[];autosize=1;strokeColor=none;fillColor=none;" vertex="1" parent="ekOtABfMRoYp2BiTtCvv-1">
          <mxGeometry x="220" y="290" width="50" height="30" as="geometry" />
        </mxCell>
        <mxCell id="ekOtABfMRoYp2BiTtCvv-18" value="&lt;b&gt;backend Server&lt;/b&gt;" style="text;html=1;align=center;verticalAlign=middle;resizable=0;points=[];autosize=1;strokeColor=none;fillColor=none;" vertex="1" parent="ekOtABfMRoYp2BiTtCvv-1">
          <mxGeometry x="245" y="345" width="110" height="30" as="geometry" />
        </mxCell>
        <mxCell id="ekOtABfMRoYp2BiTtCvv-19" value="" style="outlineConnect=0;dashed=0;verticalLabelPosition=bottom;verticalAlign=top;align=center;html=1;shape=mxgraph.aws3.rds_db_instance;fillColor=#2E73B8;gradientColor=none;" vertex="1" parent="ekOtABfMRoYp2BiTtCvv-1">
          <mxGeometry x="195.25" y="430" width="49.5" height="66" as="geometry" />
        </mxCell>
        <mxCell id="ekOtABfMRoYp2BiTtCvv-20" style="edgeStyle=orthogonalEdgeStyle;rounded=0;orthogonalLoop=1;jettySize=auto;html=1;entryX=0.5;entryY=0.02;entryDx=0;entryDy=0;entryPerimeter=0;flowAnimation=1;" edge="1" parent="ekOtABfMRoYp2BiTtCvv-1" source="ekOtABfMRoYp2BiTtCvv-15" target="ekOtABfMRoYp2BiTtCvv-19">
          <mxGeometry relative="1" as="geometry" />
        </mxCell>
        <mxCell id="ekOtABfMRoYp2BiTtCvv-21" value="&lt;b&gt;3306&lt;/b&gt;" style="text;html=1;align=center;verticalAlign=middle;resizable=0;points=[];autosize=1;strokeColor=none;fillColor=none;" vertex="1" parent="ekOtABfMRoYp2BiTtCvv-1">
          <mxGeometry x="225" y="400" width="50" height="30" as="geometry" />
        </mxCell>
        <mxCell id="ekOtABfMRoYp2BiTtCvv-22" value="&lt;b&gt;Bastion&lt;/b&gt;" style="rounded=1;whiteSpace=wrap;html=1;fillColor=#dae8fc;gradientColor=#7ea6e0;strokeColor=#6c8ebf;" vertex="1" parent="ekOtABfMRoYp2BiTtCvv-1">
          <mxGeometry x="30" y="45" width="90" height="40" as="geometry" />
        </mxCell>
        <mxCell id="ekOtABfMRoYp2BiTtCvv-23" style="edgeStyle=orthogonalEdgeStyle;rounded=0;orthogonalLoop=1;jettySize=auto;html=1;entryX=0;entryY=0.5;entryDx=0;entryDy=0;entryPerimeter=0;flowAnimation=1;" edge="1" parent="ekOtABfMRoYp2BiTtCvv-1" source="ekOtABfMRoYp2BiTtCvv-22" target="ekOtABfMRoYp2BiTtCvv-7">
          <mxGeometry relative="1" as="geometry">
            <Array as="points">
              <mxPoint x="80" y="160" />
            </Array>
          </mxGeometry>
        </mxCell>
        <mxCell id="ekOtABfMRoYp2BiTtCvv-24" value="&lt;b&gt;22, 80&lt;/b&gt;" style="text;html=1;align=center;verticalAlign=middle;resizable=0;points=[];autosize=1;strokeColor=none;fillColor=none;" vertex="1" parent="ekOtABfMRoYp2BiTtCvv-1">
          <mxGeometry x="100" y="130" width="60" height="30" as="geometry" />
        </mxCell>
        <mxCell id="ekOtABfMRoYp2BiTtCvv-25" style="edgeStyle=orthogonalEdgeStyle;rounded=0;orthogonalLoop=1;jettySize=auto;html=1;entryX=0;entryY=0.5;entryDx=0;entryDy=0;entryPerimeter=0;flowAnimation=1;" edge="1" parent="ekOtABfMRoYp2BiTtCvv-1" source="ekOtABfMRoYp2BiTtCvv-22" target="ekOtABfMRoYp2BiTtCvv-11">
          <mxGeometry relative="1" as="geometry">
            <Array as="points">
              <mxPoint x="80" y="255" />
            </Array>
          </mxGeometry>
        </mxCell>
        <mxCell id="ekOtABfMRoYp2BiTtCvv-26" value="&lt;b&gt;80&lt;/b&gt;" style="text;html=1;align=center;verticalAlign=middle;resizable=0;points=[];autosize=1;strokeColor=none;fillColor=none;" vertex="1" parent="ekOtABfMRoYp2BiTtCvv-1">
          <mxGeometry x="100" y="230" width="40" height="30" as="geometry" />
        </mxCell>
        <mxCell id="ekOtABfMRoYp2BiTtCvv-27" style="edgeStyle=orthogonalEdgeStyle;rounded=0;orthogonalLoop=1;jettySize=auto;html=1;entryX=0;entryY=0.5;entryDx=0;entryDy=0;entryPerimeter=0;flowAnimation=1;" edge="1" parent="ekOtABfMRoYp2BiTtCvv-1" source="ekOtABfMRoYp2BiTtCvv-22" target="ekOtABfMRoYp2BiTtCvv-15">
          <mxGeometry relative="1" as="geometry">
            <Array as="points">
              <mxPoint x="80" y="360" />
            </Array>
          </mxGeometry>
        </mxCell>
        <mxCell id="ekOtABfMRoYp2BiTtCvv-28" value="&lt;b&gt;8080,22&lt;/b&gt;" style="text;html=1;align=center;verticalAlign=middle;resizable=0;points=[];autosize=1;strokeColor=none;fillColor=none;" vertex="1" parent="ekOtABfMRoYp2BiTtCvv-1">
          <mxGeometry x="95" y="330" width="70" height="30" as="geometry" />
        </mxCell>
        <mxCell id="ekOtABfMRoYp2BiTtCvv-29" style="edgeStyle=orthogonalEdgeStyle;rounded=0;orthogonalLoop=1;jettySize=auto;html=1;entryX=0;entryY=0.5;entryDx=0;entryDy=0;entryPerimeter=0;flowAnimation=1;" edge="1" parent="ekOtABfMRoYp2BiTtCvv-1" source="ekOtABfMRoYp2BiTtCvv-22" target="ekOtABfMRoYp2BiTtCvv-19">
          <mxGeometry relative="1" as="geometry">
            <Array as="points">
              <mxPoint x="80" y="463" />
            </Array>
          </mxGeometry>
        </mxCell>
        <mxCell id="ekOtABfMRoYp2BiTtCvv-30" value="&lt;b&gt;3306&lt;/b&gt;" style="text;html=1;align=center;verticalAlign=middle;resizable=0;points=[];autosize=1;strokeColor=none;fillColor=none;" vertex="1" parent="ekOtABfMRoYp2BiTtCvv-1">
          <mxGeometry x="95" y="430" width="50" height="30" as="geometry" />
        </mxCell>
        <mxCell id="ekOtABfMRoYp2BiTtCvv-4" value="" style="html=1;verticalLabelPosition=bottom;align=center;labelBackgroundColor=#ffffff;verticalAlign=top;strokeWidth=2;strokeColor=#0080F0;shadow=0;dashed=0;shape=mxgraph.ios7.icons.user;" vertex="1" parent="1">
          <mxGeometry x="357.5" y="-20" width="45" height="50" as="geometry" />
        </mxCell>
        <mxCell id="ekOtABfMRoYp2BiTtCvv-5" style="edgeStyle=orthogonalEdgeStyle;rounded=0;orthogonalLoop=1;jettySize=auto;html=1;entryX=0.5;entryY=0;entryDx=0;entryDy=0;entryPerimeter=0;flowAnimation=1;" edge="1" parent="1" source="ekOtABfMRoYp2BiTtCvv-4" target="ekOtABfMRoYp2BiTtCvv-2">
          <mxGeometry relative="1" as="geometry" />
        </mxCell>
        <mxCell id="ekOtABfMRoYp2BiTtCvv-6" value="&lt;b&gt;80/443&lt;/b&gt;" style="text;html=1;align=center;verticalAlign=middle;resizable=0;points=[];autosize=1;strokeColor=none;fillColor=none;" vertex="1" parent="1">
          <mxGeometry x="380" y="50" width="60" height="30" as="geometry" />
        </mxCell>
        <mxCell id="ekOtABfMRoYp2BiTtCvv-32" style="edgeStyle=orthogonalEdgeStyle;rounded=0;orthogonalLoop=1;jettySize=auto;html=1;entryX=0.587;entryY=0.005;entryDx=0;entryDy=0;entryPerimeter=0;flowAnimation=1;" edge="1" parent="1" source="ekOtABfMRoYp2BiTtCvv-31" target="ekOtABfMRoYp2BiTtCvv-22">
          <mxGeometry relative="1" as="geometry" />
        </mxCell>
        <mxCell id="ekOtABfMRoYp2BiTtCvv-31" value="" style="points=[[0.35,0,0],[0.98,0.51,0],[1,0.71,0],[0.67,1,0],[0,0.795,0],[0,0.65,0]];verticalLabelPosition=bottom;sketch=0;html=1;verticalAlign=top;aspect=fixed;align=center;pointerEvents=1;shape=mxgraph.cisco19.user;fillColor=#005073;strokeColor=none;" vertex="1" parent="1">
          <mxGeometry x="220" y="-20" width="50" height="50" as="geometry" />
        </mxCell>
      </root>
    </mxGraphModel>
  </diagram>
</mxfile>
